<svg xmlns="http://www.w3.org/2000/svg" viewBox="0 0 512 512">
  <rect width="512" height="512" rx="112" fill="#0D0D15"/>
  <circle cx="256" cy="256" r="160" fill="none" stroke="#F5C518" stroke-width="20" opacity="0.15"/>
  <!-- DNA helix simplified: two strands + rungs -->
  <path d="M180 120 Q256 180 332 240 Q256 300 180 360 Q256 300 332 240 Q256 180 180 120" fill="none" stroke="#F5C518" stroke-width="14" stroke-linecap="round"/>
  <path d="M332 120 Q256 180 180 240 Q256 300 332 360 Q256 300 180 240 Q256 180 332 120" fill="none" stroke="#F5C518" stroke-width="14" stroke-linecap="round" opacity="0.55"/>
  <!-- rungs -->
  <line x1="196" y1="155" x2="316" y2="192" stroke="#F5C518" stroke-width="7" stroke-linecap="round" opacity="0.7"/>
  <line x1="185" y1="212" x2="327" y2="212" stroke="#F5C518" stroke-width="7" stroke-linecap="round" opacity="0.7"/>
  <line x1="196" y1="269" x2="316" y2="232" stroke="#F5C518" stroke-width="7" stroke-linecap="round" opacity="0.7"/>
  <line x1="196" y1="305" x2="316" y2="268" stroke="#F5C518" stroke-width="7" stroke-linecap="round" opacity="0.7"/>
  <line x1="185" y1="330" x2="327" y2="330" stroke="#F5C518" stroke-width="7" stroke-linecap="round" opacity="0.7"/>
</svg>
